<?xml version="1.0" encoding="utf-8"?>
<!-- Generator: Adobe Illustrator 24.1.1, SVG Export Plug-In . SVG Version: 6.00 Build 0)  -->
<svg version="1.1" id="图层_1" xmlns="http://www.w3.org/2000/svg" xmlns:xlink="http://www.w3.org/1999/xlink" x="0px" y="0px"
	 viewBox="0 0 12 12" style="enable-background:new 0 0 12 12;" xml:space="preserve">
<style type="text/css">
	.st0{fill-rule:evenodd;clip-rule:evenodd;fill:#FF0000;}
</style>
<path class="st0" d="M0,1.9c0-0.2,0.2-0.4,0.4-0.4h1.1c0.2,0,0.3,0.1,0.4,0.3L2.2,3h8.7c0.2,0,0.4,0.2,0.4,0.4c0,0,0,0.1,0,0.1
	L10.1,8c0,0.2-0.2,0.3-0.4,0.3H3C2.8,8.2,2.7,8.1,2.6,8L1.2,2.3H0.4C0.2,2.3,0,2.1,0,1.9z M2.4,3.8l0.4,1.5h1V3.8H2.4z M4.5,3.8v1.5
	H6V3.8H4.5z M6.8,3.8v1.5h1.5V3.8H6.8z M9,3.8v1.5h1l0.4-1.5H9z M9.8,6H9v1.5h0.5L9.8,6z M8.3,6H6.8v1.5h1.5V6z M6,6H4.5v1.5H6V6z
	 M3.8,6H2.9l0.4,1.5h0.5V6z M3.8,9.8C3.3,9.8,3,10.1,3,10.5s0.3,0.8,0.8,0.8s0.8-0.3,0.8-0.8S4.2,9.8,3.8,9.8z M2.3,10.5
	C2.3,9.7,2.9,9,3.8,9s1.5,0.7,1.5,1.5S4.6,12,3.8,12S2.3,11.3,2.3,10.5z M9,9.8c-0.4,0-0.8,0.3-0.8,0.8s0.3,0.8,0.8,0.8
	s0.8-0.3,0.8-0.8S9.4,9.8,9,9.8z M7.5,10.5C7.5,9.7,8.2,9,9,9s1.5,0.7,1.5,1.5S9.8,12,9,12S7.5,11.3,7.5,10.5z"/>
</svg>
