<?xml version="1.0" encoding="utf-8"?>
<!-- Generator: Adobe Illustrator 24.1.1, SVG Export Plug-In . SVG Version: 6.00 Build 0)  -->
<svg version="1.1" id="图层_1" xmlns="http://www.w3.org/2000/svg" xmlns:xlink="http://www.w3.org/1999/xlink" x="0px" y="0px"
	 viewBox="0 0 12 12" style="enable-background:new 0 0 12 12;" xml:space="preserve">
<style type="text/css">
	.st0{fill-rule:evenodd;clip-rule:evenodd;fill:#FF0000;}
</style>
<path class="st0" d="M1.5,9.4C1.5,9.2,1.7,9,1.9,9h8.3c0.2,0,0.4,0.2,0.4,0.4s-0.2,0.4-0.4,0.4H1.9C1.7,9.8,1.5,9.6,1.5,9.4z
	 M1.5,7.1c0-0.2,0.2-0.4,0.4-0.4h8.3c0.2,0,0.4,0.2,0.4,0.4s-0.2,0.4-0.4,0.4H1.9C1.7,7.5,1.5,7.3,1.5,7.1z M1.5,4.9
	c0-0.2,0.2-0.4,0.4-0.4h8.3c0.2,0,0.4,0.2,0.4,0.4s-0.2,0.4-0.4,0.4H1.9C1.7,5.3,1.5,5.1,1.5,4.9z M1.5,2.6c0-0.2,0.2-0.4,0.4-0.4
	h8.3c0.2,0,0.4,0.2,0.4,0.4S10.3,3,10.1,3H1.9C1.7,3,1.5,2.8,1.5,2.6z"/>
</svg>
