<?xml version="1.0" encoding="utf-8"?>
<!-- Generator: Adobe Illustrator 24.1.1, SVG Export Plug-In . SVG Version: 6.00 Build 0)  -->
<svg version="1.1" id="图层_1" xmlns="http://www.w3.org/2000/svg" xmlns:xlink="http://www.w3.org/1999/xlink" x="0px" y="0px"
	 viewBox="0 0 12 12" style="enable-background:new 0 0 12 12;" xml:space="preserve">
<style type="text/css">
	.st0{fill-rule:evenodd;clip-rule:evenodd;fill:#FF0000;}
</style>
<path class="st0" d="M1.5,10.1V5.3h0.8v4.9c0,0.2,0.2,0.4,0.4,0.4h6.8c0.2,0,0.4-0.2,0.4-0.4V5.3h0.8v4.9c0,0.6-0.5,1.1-1.1,1.1H2.6
	C2,11.3,1.5,10.7,1.5,10.1z M9.8,1.9v2.6L8.3,3V1.9c0-0.2,0.2-0.4,0.4-0.4h0.8C9.6,1.5,9.8,1.7,9.8,1.9z"/>
<path class="st0" d="M5.5,1.1c0.3-0.3,0.8-0.3,1.1,0l5,5c0.1,0.1,0.1,0.4,0,0.5s-0.4,0.1-0.5,0l-5-5l-5,5c-0.1,0.1-0.4,0.1-0.5,0
	s-0.1-0.4,0-0.5L5.5,1.1z"/>
</svg>
